<svg width="47" height="47" viewBox="0 0 47 47" version="1.1" xmlns="http://www.w3.org/2000/svg" xmlns:xlink="http://www.w3.org/1999/xlink">
<title>Group</title>
<desc>Created using Figma</desc>
<g id="Canvas" transform="translate(-303 766)">
<g id="Group">
<g id="Ellipse (Stroke)">
<use xlink:href="#path0_fill" transform="translate(303 -766)" fill="#CCCCCC"/>
</g>
<g id="Ellipse 2">
<use xlink:href="#path1_fill" transform="translate(314.98 -751.255)" fill="#CCCCCC"/>
</g>
<g id="Ellipse 2.1">
<use xlink:href="#path1_fill" transform="translate(332.49 -751.255)" fill="#CCCCCC"/>
</g>
<g id="Vector (Stroke)">
<use xlink:href="#path2_fill" transform="translate(317.745 -739)" fill="#CCCCCC"/>
</g>
<g id="Ellipse">
<use xlink:href="#path3_fill" transform="matrix(1 1.60812e-16 -1.60812e-16 1 333.412 -743.882)" fill="#C4C4C4"/>
</g>
</g>
</g>
<defs>
<path id="path0_fill" fill-rule="evenodd" d="M 23.5 43.3137C 34.4428 43.3137 43.3137 34.4428 43.3137 23.5C 43.3137 12.5572 34.4428 3.68627 23.5 3.68627C 12.5572 3.68627 3.68627 12.5572 3.68627 23.5C 3.68627 34.4428 12.5572 43.3137 23.5 43.3137ZM 23.5 47C 36.4787 47 47 36.4787 47 23.5C 47 10.5213 36.4787 0 23.5 0C 10.5213 0 0 10.5213 0 23.5C 0 36.4787 10.5213 47 23.5 47Z"/>
<path id="path1_fill" d="M 5.52941 2.76471C 5.52941 4.29161 4.29161 5.52941 2.76471 5.52941C 1.2378 5.52941 0 4.29161 0 2.76471C 0 1.2378 1.2378 0 2.76471 0C 4.29161 0 5.52941 1.2378 5.52941 2.76471Z"/>
<path id="path2_fill" fill-rule="evenodd" d="M 3.66896 7.62612C 3.53009 8.62716 2.60974 9.33091 1.60559 9.20029C 0.596156 9.06898 -0.115704 8.14423 0.0156045 7.13479L 1.84334 7.37255C 0.0156046 7.13479 0.0157414 7.13374 0.0158817 7.13267L 0.0161789 7.13042L 0.0168343 7.12551L 0.0183963 7.11412L 0.0225823 7.08512C 0.0250217 7.06881 0.0302489 7.0354 0.0356657 7.00313C 0.0446721 6.95013 0.0628577 6.85177 0.0844544 6.74977C 0.123109 6.57 0.200396 6.26132 0.304096 5.93857C 0.498656 5.34575 0.909521 4.39844 1.51316 3.53539C 2.82771 1.69801 5.1702 0 9.03607 0C 12.8929 0 15.2982 1.68697 16.6928 3.47381C 17.3425 4.32265 17.8046 5.25051 18.0357 5.83852C 18.1591 6.15774 18.2549 6.46161 18.3049 6.64006C 18.3328 6.74094 18.357 6.83773 18.3693 6.89025C 18.3768 6.92209 18.384 6.95487 18.3875 6.97098L 18.3934 6.99941L 18.3957 7.01054L 18.3966 7.01532L 18.3971 7.01751C 18.3973 7.01854 18.3975 7.01956 16.6163 7.36711L 18.3975 7.01957C 18.5924 8.01866 17.9405 8.98663 16.9414 9.18157C 15.9473 9.37554 14.984 8.73111 14.7824 7.74047C 14.7818 7.73797 14.781 7.73438 14.7801 7.73065C 14.7735 7.70217 14.7682 7.68016 14.754 7.62986C 14.7197 7.50591 14.6806 7.3778 14.6017 7.17864C 14.4282 6.72988 14.216 6.27539 13.7868 5.74187C 13.0236 4.76402 11.6527 3.68627 9.03607 3.68627C 6.42849 3.68627 5.17461 4.75297 4.51116 5.6803C 4.1258 6.1996 3.95226 6.63465 3.80966 7.07859C 3.74478 7.27422 3.7153 7.39753 3.68933 7.52015C 3.67862 7.56934 3.67503 7.58977 3.67034 7.61777C 3.66978 7.62095 3.6693 7.62393 3.66896 7.62612Z"/>
<path id="path3_fill" d="M 3.68627 2.76471C 3.68627 3.78264 2.86107 4.60784 1.84314 4.60784C 0.825201 4.60784 0 3.78264 0 2.76471C 0 1.74677 1.84314 0 1.84314 0C 1.84314 0 3.68627 1.74677 3.68627 2.76471Z"/>
</defs>
</svg>
