<svg width="50" height="50" viewBox="0 0 50 50" version="1.1" xmlns="http://www.w3.org/2000/svg" xmlns:xlink="http://www.w3.org/1999/xlink">
<title>info_popup</title>
<desc>Created using Figma</desc>
<g id="Canvas" transform="matrix(2 0 0 2 328 2850)">
<g id="info_popup">
<g id="Ellipse 2">
<use xlink:href="#path0_fill" transform="translate(-164 -1425)" fill="#FFFFFF"/>
<mask id="mask0_outline_ins">
<use xlink:href="#path0_fill" fill="white" transform="translate(-164 -1425)"/>
</mask>
<g mask="url(#mask0_outline_ins)">
<use xlink:href="#path1_stroke_2x" transform="translate(-164 -1425)" fill="#C7C7C7"/>
</g>
</g>
<g id="Ellipse">
<use xlink:href="#path2_fill" transform="translate(-154 -1420)" fill="#C7C7C7"/>
</g>
<g id="Union">
<use xlink:href="#path3_fill" transform="translate(-155.303 -1414.45)" fill="#C7C7C7"/>
</g>
</g>
</g>
<defs>
<path id="path0_fill" d="M 25 12.5C 25 19.4036 19.4036 25 12.5 25C 5.59644 25 0 19.4036 0 12.5C 0 5.59644 5.59644 0 12.5 0C 19.4036 0 25 5.59644 25 12.5Z"/>
<path id="path1_stroke_2x" d="M 23 12.5C 23 18.299 18.299 23 12.5 23L 12.5 27C 20.5081 27 27 20.5081 27 12.5L 23 12.5ZM 12.5 23C 6.70101 23 2 18.299 2 12.5L -2 12.5C -2 20.5081 4.49187 27 12.5 27L 12.5 23ZM 2 12.5C 2 6.70101 6.70101 2 12.5 2L 12.5 -2C 4.49187 -2 -2 4.49187 -2 12.5L 2 12.5ZM 12.5 2C 18.299 2 23 6.70101 23 12.5L 27 12.5C 27 4.49187 20.5081 -2 12.5 -2L 12.5 2Z"/>
<path id="path2_fill" d="M 4 2C 4 3.10457 3.10457 4 2 4C 0.895431 4 0 3.10457 0 2C 0 0.895431 0.895431 0 2 0C 3.10457 0 4 0.895431 4 2Z"/>
<path id="path3_fill" fill-rule="evenodd" d="M 5.30344 1.00116C 5.30344 0.273868 4.55174 -0.210163 3.88964 0.0907907L 0.321771 1.71255C 0.0386618 1.84123 -0.0810084 2.17926 0.058068 2.45741L 0.058068 2.45741C 0.193583 2.72844 0.523153 2.8383 0.794184 2.70278L 1.06737 2.56619C 1.63527 2.28224 2.30344 2.69519 2.30344 3.33012L 2.30344 7.44815C 2.30344 8.00044 1.85572 8.44815 1.30344 8.44815L 0.803425 8.44815C 0.527282 8.44815 0.303425 8.67201 0.303425 8.94815L 0.303425 8.94815C 0.303425 9.22429 0.527282 9.44815 0.803425 9.44815L 2.30344 9.44815C 2.30344 9.44815 2.30344 9.44815 2.30344 9.44815L 5.30344 9.44815C 5.30344 9.44815 5.30344 9.44815 5.30344 9.44815L 6.80342 9.44815C 7.07957 9.44815 7.30342 9.22429 7.30342 8.94815L 7.30342 8.94815C 7.30342 8.67201 7.07957 8.44815 6.80342 8.44815L 6.30343 8.44815C 5.75115 8.44815 5.30344 8.00044 5.30344 7.44816L 5.30344 1.00116Z"/>
</defs>
</svg>
