<svg width="326" height="43" viewBox="0 0 326 43" version="1.1" xmlns="http://www.w3.org/2000/svg" xmlns:xlink="http://www.w3.org/1999/xlink">
<title>logo</title>
<desc>Created using Figma</desc>
<g id="Canvas" transform="translate(-693 288)">
<rect x="693" y="-288" width="326" height="43" fill="#E5E5E5"/>
<clipPath id="clip-0" clip-rule="evenodd">
<path d="M 693 -288L 1053 -288L 1053 343L 693 343L 693 -288Z" fill="#FFFFFF"/>
</clipPath>
<g id="popup" clip-path="url(#clip-0)">
<path d="M 693 -288L 1053 -288L 1053 343L 693 343L 693 -288Z" fill="#232F3E"/>
<clipPath id="clip-1" clip-rule="evenodd">
<path d="M 693 -288L 1053 -288L 1053 -245L 693 -245L 693 -288Z" fill="#FFFFFF"/>
</clipPath>
<g id="header" clip-path="url(#clip-1)">
<path d="M 693 -288L 1053 -288L 1053 -245L 693 -245L 693 -288Z" fill="#232F3E"/>
<clipPath id="clip-2" clip-rule="evenodd">
<path d="M 693 -288L 1019 -288L 1019 -245L 693 -245L 693 -288Z" fill="#FFFFFF"/>
</clipPath>
<g id="logo" clip-path="url(#clip-2)">
<g id="title">
<use xlink:href="#path0_fill" transform="translate(713 -280)" fill="#FFFFFF"/>
</g>
<g id="title">
<use xlink:href="#path1_fill" transform="translate(807 -273)" fill="#FF9900"/>
</g>
</g>
</g>
</g>
</g>
<defs>
<path id="path0_fill" d="M 4.23091 10.8C 5.09491 10.272 6.29491 9.888 7.51891 9.888C 9.46291 9.888 9.91891 10.896 9.91891 12.216C 5.67091 12.216 2.62291 13.824 2.62291 17.256C 2.62291 19.416 4.15891 21.264 6.63091 21.264C 8.11891 21.264 9.41491 20.664 10.1829 19.608L 10.2549 19.608L 10.4709 21L 13.6629 21C 13.5189 20.184 13.4709 19.008 13.4709 17.832L 13.4709 12.936C 13.4709 10.008 12.3429 7.368 8.19091 7.368C 6.10291 7.368 4.44691 7.968 3.55891 8.496L 4.23091 10.8ZM 10.0149 16.416C 10.0149 18.12 8.62291 18.72 7.78291 18.72C 6.89491 18.72 6.10291 18.168 6.10291 16.896C 6.10291 14.952 8.09491 14.496 10.0149 14.496L 10.0149 16.416ZM 27.0033 9.6C 26.4753 8.232 25.2273 7.368 23.5953 7.368C 21.6033 7.368 20.4273 8.472 19.8033 9.432L 19.7313 9.432L 19.5633 7.656L 16.5393 7.656C 16.5873 8.832 16.6353 10.104 16.6353 11.664L 16.6353 21L 20.1153 21L 20.1153 12.96C 20.1153 11.16 21.2673 10.248 22.2513 10.248C 23.6433 10.248 24.1473 11.52 24.1473 13.104L 24.1473 21L 27.6273 21L 27.6273 12.888C 27.6273 11.016 28.7313 10.248 29.7153 10.248C 31.1313 10.248 31.6593 11.52 31.6593 13.44L 31.6593 21L 35.1393 21L 35.1393 12.888C 35.1393 9.024 33.3393 7.368 31.0113 7.368C 29.5233 7.368 28.1553 7.968 27.0513 9.6L 27.0033 9.6ZM 39.0356 10.8C 39.8996 10.272 41.0996 9.888 42.3236 9.888C 44.2676 9.888 44.7236 10.896 44.7236 12.216C 40.4756 12.216 37.4276 13.824 37.4276 17.256C 37.4276 19.416 38.9636 21.264 41.4356 21.264C 42.9236 21.264 44.2196 20.664 44.9876 19.608L 45.0596 19.608L 45.2756 21L 48.4676 21C 48.3236 20.184 48.2756 19.008 48.2756 17.832L 48.2756 12.936C 48.2756 10.008 47.1476 7.368 42.9956 7.368C 40.9076 7.368 39.2516 7.968 38.3636 8.496L 39.0356 10.8ZM 44.8196 16.416C 44.8196 18.12 43.4276 18.72 42.5876 18.72C 41.6996 18.72 40.9076 18.168 40.9076 16.896C 40.9076 14.952 42.8996 14.496 44.8196 14.496L 44.8196 16.416ZM 50.84 10.488L 56.432 10.488L 56.432 10.56C 55.856 11.256 55.28 11.976 54.68 12.792L 50.384 18.888L 50.384 21L 60.752 21L 60.752 18.144L 54.656 18.144L 54.656 18.096C 55.232 17.424 55.856 16.632 56.456 15.816L 60.608 9.864L 60.608 7.632L 50.84 7.632L 50.84 10.488ZM 68.469 7.344C 64.845 7.344 62.133 9.888 62.133 14.376C 62.133 18.72 64.725 21.264 68.325 21.264C 71.301 21.264 74.565 19.296 74.565 14.208C 74.565 10.152 72.213 7.344 68.469 7.344ZM 70.965 14.28C 70.965 16.656 70.053 18.648 68.373 18.648C 66.645 18.648 65.733 16.68 65.733 14.304C 65.733 12.264 66.429 9.96 68.397 9.96C 70.221 9.96 70.965 12.192 70.965 14.28ZM 80.2715 9.456L 80.1035 7.656L 77.0315 7.656C 77.0795 8.832 77.1275 10.104 77.1275 11.664L 77.1275 21L 80.6795 21L 80.6795 13.056C 80.6795 11.016 81.9995 10.272 82.9595 10.272C 84.4715 10.272 84.9995 11.568 84.9995 13.2L 84.9995 21L 88.5515 21L 88.5515 12.816C 88.5515 9.072 86.6555 7.368 84.2075 7.368C 82.2635 7.368 80.9435 8.472 80.3435 9.456L 80.2715 9.456Z"/>
<path id="path1_fill" d="M 7.34563 7.506L 10.7896 7.506L 10.7896 5.812L 7.34563 5.812L 7.34563 2.97L 11.0416 2.97L 11.0416 1.234L 5.27363 1.234L 5.27363 12L 7.34563 12L 7.34563 7.506ZM 12.7932 11.958C 13.2972 12.028 14.0672 12.098 15.0892 12.098C 17.0072 12.098 18.2112 11.748 18.9392 11.09C 19.5692 10.53 19.9192 9.718 19.9192 8.878C 19.9192 7.506 19.0232 6.554 17.8192 6.246L 17.8192 6.19C 18.9672 5.756 19.5412 4.846 19.5412 3.866C 19.5412 2.984 19.1352 2.27 18.4912 1.836C 17.7492 1.318 16.8252 1.15 15.5232 1.15C 14.4732 1.15 13.4092 1.248 12.7932 1.374L 12.7932 11.958ZM 14.8512 2.76C 15.0332 2.718 15.3132 2.69 15.7612 2.69C 16.6852 2.69 17.4832 3.04 17.4832 4.104C 17.4832 4.986 16.7832 5.616 15.6072 5.616L 14.8512 5.616L 14.8512 2.76ZM 15.6212 7.128C 16.6852 7.128 17.7492 7.576 17.7492 8.822C 17.7492 10.04 16.7972 10.544 15.6772 10.544C 15.3132 10.544 15.0612 10.53 14.8512 10.488L 14.8512 7.128L 15.6212 7.128ZM 23.8112 1.234L 20.7592 12L 22.8592 12L 23.6012 9.158L 26.4852 9.158L 27.2552 12L 29.4252 12L 26.4152 1.234L 23.8112 1.234ZM 24.5392 5.126C 24.6932 4.496 24.8752 3.614 25.0152 2.942L 25.0572 2.942C 25.1972 3.6 25.3792 4.468 25.5472 5.14L 26.1912 7.59L 23.8952 7.59L 24.5392 5.126ZM 37.4179 4.608L 37.4179 0.996C 37.5859 0.856 37.7119 0.702 37.7119 0.576C 37.7119 0.45 37.5719 0.366 37.2219 0.366L 35.8779 0.366L 35.8779 4.608L 33.7079 4.608L 33.7079 6.008L 35.8079 6.008C 35.4859 7.212 34.2679 8.64 33.3719 9.27C 33.7219 9.732 34.0299 10.236 34.3519 10.726C 34.9259 10.208 35.4299 9.69 35.8219 9.06L 35.8219 12.854L 37.4599 12.854L 37.4599 8.612C 37.6279 8.864 38.0199 9.214 38.5939 9.634C 38.8599 9.186 39.2099 8.584 39.4479 8.248C 38.5379 7.576 37.5719 6.708 37.3339 6.008L 39.5599 6.008L 39.5599 4.608L 37.4179 4.608ZM 38.4259 1.206C 38.2579 1.85 37.9499 2.858 37.6139 3.516C 38.0619 3.656 38.4119 3.81 38.8319 4.006C 39.1679 3.39 39.3779 2.732 39.6019 2.074C 39.7419 1.99 39.8959 1.892 39.8959 1.78C 39.8959 1.696 39.7839 1.598 39.4619 1.5L 38.4259 1.206ZM 33.8479 1.71C 34.1139 2.466 34.2819 3.334 34.3939 4.02C 34.7019 3.936 35.1779 3.796 35.5979 3.698C 35.5279 2.984 35.3319 2.116 35.0379 1.43L 33.8479 1.71ZM 40.0919 2.34C 40.6379 2.676 41.2959 3.138 41.8979 3.628C 42.1359 3.32 42.4439 2.886 42.7379 2.578C 42.2339 2.172 41.6179 1.766 40.9459 1.416L 40.0919 2.34ZM 39.9379 5.462L 41.7579 6.806C 41.9679 6.512 42.2619 6.078 42.5699 5.686C 42.0379 5.28 41.3939 4.846 40.8199 4.496L 39.9379 5.462ZM 43.3259 7.296C 42.5699 7.506 40.9739 7.926 39.5879 8.192L 40.1759 9.676C 40.2739 9.956 40.3859 10.068 40.4839 10.068C 40.6239 10.068 40.7359 9.886 40.7639 9.62L 43.3259 8.864L 43.3259 12.826L 44.9639 12.826L 44.9639 8.374L 46.1679 7.968L 46.1679 6.47L 44.9639 6.834L 44.9639 0.926C 45.0759 0.8 45.1459 0.674 45.1459 0.562C 45.1459 0.422 45.0199 0.31 44.6559 0.31L 43.3259 0.31L 43.3259 7.296ZM 56.9899 5.098C 57.8159 5.616 58.4879 5.952 59.1599 6.246C 59.4539 5.756 59.8739 5.126 60.1959 4.636C 58.0959 4.118 55.7019 2.606 54.7359 0.926C 54.9179 0.87 55.1139 0.772 55.1139 0.646C 55.1139 0.534 54.9459 0.422 54.4419 0.338L 52.9439 0.128C 52.1879 2.102 49.9199 4.3 47.4279 5.028C 47.9179 5.518 48.2679 6.022 48.5479 6.512C 49.1359 6.246 49.7519 5.91 50.5779 5.364L 50.5779 5.672L 52.9579 5.672L 52.9579 6.946L 49.1499 6.946L 49.1499 8.346L 52.9579 8.346L 52.9579 11.244L 51.9499 11.244C 51.6699 10.376 51.4039 9.592 51.0959 8.808L 49.6959 9.242C 49.9199 9.802 50.1579 10.6 50.3259 11.244L 47.7079 11.244L 47.7079 12.644L 59.8879 12.644L 59.8879 11.244L 57.2559 11.244L 57.8579 9.718C 58.0399 9.648 58.1659 9.55 58.1659 9.438C 58.1659 9.354 58.0679 9.256 57.8159 9.186L 56.4999 8.808C 56.2479 9.578 55.8559 10.586 55.5759 11.244L 54.6239 11.244L 54.6239 8.346L 58.8519 8.346L 58.8519 6.946L 54.6239 6.946L 54.6239 5.672L 56.9899 5.672L 56.9899 5.098ZM 51.9499 4.3C 52.6919 3.614 53.2939 2.956 53.7419 2.27C 54.2599 2.97 55.0159 3.698 55.8139 4.3L 51.9499 4.3ZM 67.9379 2.326C 66.9719 1.822 65.5719 1.304 64.3259 0.94L 63.5419 2.326C 64.7739 2.704 66.0899 3.264 67.0699 3.81L 67.9379 2.326ZM 64.3399 12.686C 64.5219 12.602 64.5919 12.448 64.5639 12.308C 68.5819 10.95 71.9979 8.29 73.9019 4.3C 73.5379 4.062 72.7259 3.46 72.3759 3.152C 70.4579 7.296 67.3359 9.578 63.0379 10.908L 64.3399 12.686ZM 66.2299 5.686C 65.3059 5.224 63.8919 4.706 62.6459 4.384L 61.8899 5.84C 63.0939 6.162 64.5639 6.75 65.4739 7.212L 66.2299 5.686ZM 85.9979 2.298C 84.1639 1.612 80.9299 0.982 78.5639 0.744L 77.9479 2.41C 80.3279 2.69 83.2679 3.278 85.2559 4.076L 85.9979 2.298ZM 85.2839 6.344C 83.5899 5.742 80.6919 5.098 78.5919 4.902L 78.0039 6.554C 80.2299 6.806 83.1279 7.464 84.6959 8.108L 85.2839 6.344ZM 86.2359 10.964C 83.8559 10.096 80.4539 9.354 77.5419 9.004L 76.8419 10.628C 79.7959 11.006 83.3939 11.944 85.4519 12.756L 86.2359 10.964ZM 97.7859 4.244L 97.5199 4.328L 92.0459 4.328L 92.0459 5.714L 97.0579 5.714C 96.9179 6.974 96.6379 9.144 96.4279 10.418L 90.9959 10.418L 90.9959 11.804L 100.572 11.804L 100.572 10.418L 97.8839 10.418C 98.0939 9.074 98.5139 6.288 98.6959 4.958C 98.7939 4.916 98.8779 4.846 98.9199 4.748L 97.7859 4.244ZM 105.794 0.926L 105.794 10.824L 105.584 11.174L 106.564 12.798C 106.704 12.742 106.816 12.588 106.858 12.462C 110.946 11.412 114.25 9.354 116.042 6.428C 115.706 6.12 115.076 5.56 114.768 5.14C 113.284 7.716 110.68 9.494 107.642 10.376L 107.642 1.388C 107.936 1.346 108.062 1.206 108.076 1.038L 105.794 0.926ZM 129.552 7.352L 129.552 5.588L 117.862 5.588L 117.974 7.618C 118.17 7.59 118.366 7.492 118.45 7.352L 129.552 7.352ZM 141.186 2.424L 137.448 2.424C 137.672 2.004 137.924 1.486 138.064 1.108C 138.316 1.122 138.47 1.038 138.526 0.884L 136.272 0.394C 135.446 2.746 133.99 5.014 132.016 6.456C 132.45 6.722 133.136 7.24 133.472 7.562C 134.536 6.68 135.614 5.392 136.482 4.048L 140.346 4.048C 140.038 5.014 139.604 5.938 139.058 6.792C 138.246 6.372 137.378 5.994 136.608 5.714L 135.642 7.086C 136.412 7.394 137.266 7.828 138.008 8.276C 136.79 9.69 135.222 10.838 133.444 11.622C 133.892 11.888 134.564 12.546 134.83 12.952C 136.72 12.028 138.316 10.782 139.548 9.2C 140.052 9.522 140.738 9.998 141.144 10.334L 142.166 8.612C 141.76 8.332 141.116 7.912 140.626 7.618C 141.354 6.47 142.04 4.86 142.572 3.236C 142.684 3.166 142.768 3.082 142.796 2.984L 141.48 2.34L 141.186 2.424ZM 157.552 7.352L 157.552 5.588L 145.862 5.588L 145.974 7.618C 146.17 7.59 146.366 7.492 146.45 7.352L 157.552 7.352Z"/>
</defs>
</svg>
