<svg width="12" height="12" viewBox="0 0 12 12" version="1.1" xmlns="http://www.w3.org/2000/svg" xmlns:xlink="http://www.w3.org/1999/xlink">
<title>scroll_up_button</title>
<desc>Created using Figma</desc>
<g id="Canvas" transform="translate(78 1429)">
<g id="scroll_up_button">
<g id="hover">
<g id="Ellipse">
<use xlink:href="#path0_fill" transform="matrix(-1 -8.74228e-08 8.74228e-08 -1 -66 -1417)" fill="#F7F7F7"/>
<mask id="mask0_outline_ins">
<use xlink:href="#path0_fill" fill="white" transform="matrix(-1 -8.74228e-08 8.74228e-08 -1 -66 -1417)"/>
</mask>
<g mask="url(#mask0_outline_ins)">
<use xlink:href="#path1_stroke_2x" transform="matrix(-1 -8.74228e-08 8.74228e-08 -1 -66 -1417)" fill="#B2CDD6"/>
</g>
</g>
<g id="Polygon">
<use xlink:href="#path2_fill" transform="matrix(1 1.74846e-07 -1.74846e-07 1 -75 -1426)" fill="#B2CDD6"/>
</g>
</g>
</g>
</g>
<defs>
<path id="path0_fill" d="M 12 6C 12 9.31371 9.31371 12 6 12C 2.68629 12 0 9.31371 0 6C 0 2.68629 2.68629 0 6 0C 9.31371 0 12 2.68629 12 6Z"/>
<path id="path1_stroke_2x" d="M 11 6C 11 8.76142 8.76142 11 6 11L 6 13C 9.86599 13 13 9.86599 13 6L 11 6ZM 6 11C 3.23858 11 1 8.76142 1 6L -1 6C -1 9.86599 2.13401 13 6 13L 6 11ZM 1 6C 1 3.23858 3.23858 1 6 1L 6 -1C 2.13401 -1 -1 2.13401 -1 6L 1 6ZM 6 1C 8.76142 1 11 3.23858 11 6L 13 6C 13 2.13401 9.86599 -1 6 -1L 6 1Z"/>
<path id="path2_fill" d="M 3 0L 5.59808 4.5L 0.401924 4.5L 3 0Z"/>
</defs>
<style>svg { cursor: pointer; }</style>
</svg>
